#!OML:ASF F:\VICON\USERDATA\INSTALL\rory3\rory3.ASF
:FULLY-SPECIFIED
:DEGREES
150
root 0.9179939365571392 17.87940462900013 42.7907962014525 1.6742086538095806 0.7497263996669681 0.10290304912436499
lfemur -19.245747672096144 1.6907318816464374 -21.599195068900364
ltibia 37.36785965642125
lfoot 2.94841833694543 -9.696788471660827
ltoes -4.700768237285969
rfemur -14.528858378974425 4.6898089673171715 27.395886168330424
rtibia 55.46459121196058
rfoot -4.375882922493183 -6.33794098446921
rtoes 0.37934059864807657
lowerback 12.756011765139549 0.9631615921452572 1.7742868126820222
upperback -0.7636861505175064 2.1802323491056543 1.0831152846333536
thorax -8.229517885118856 1.308506557654846 0.3332564658479909
lowerneck -19.8590255106158 -4.076275871100561 -1.8813312490687981
upperneck 10.027649002770959 -5.312164933069104 3.2729821539613684
head 6.337949612038069 -2.373590706435458 0.8130756685338452
lclavicle 4.287488207731266e-15 5.75886165290891e-17
lhumerus -52.642078768899445 -11.680372149662093 96.20489001287264
lradius 109.73096319228398
lwrist 28.58009267621103
lhand -29.41408412277583 2.9767334762497333
lfingers 7.125019999999998
lthumb -3.1045152337701434 32.59421112764
rclavicle 4.28752700038245e-15 5.761646213958064e-17
rhumerus -41.04664435930247 15.726071902353645 -98.9850686327571
rradius 105.84982302706909
rwrist -9.709655723444563
rhand -20.38239878458612 36.446327724086935
rfingers 7.125019999999998
rthumb 6.068352196905692 6.115995365603784
151
root 0.8594006382774162 17.795331771607106 39.66112803718989 1.5441645527740469 0.2774715450161963 -0.12768756065940545
lfemur -16.36901143963703 2.2667187653146774 -21.033779066127337
ltibia 37.72934958478589
lfoot 2.6549502343355744 -9.561873587263015
ltoes -4.744684725617525
rfemur -18.187574231630776 4.119656830085485 26.43742324592998
rtibia 55.37194838307506
rfoot -4.724929027792342 -6.589534394946661
rtoes -0.11668579428671766
lowerback 12.666287678743151 0.919316671391741 1.5318299447037318
upperback -0.754330679165936 1.990635930039703 1.0279330929277892
thorax -8.22032556328214 1.2334277177409219 0.4738341501467612
lowerneck -19.730652139351214 -3.9212345593067504 -1.8203987495445473
upperneck 9.96488042965004 -5.223119737661808 3.213589163246946
head 6.347560331143234 -2.3269933507409037 0.8227411818596377
lclavicle 4.287488207731266e-15 5.75886165290891e-17
lhumerus -50.92140875949609 -11.562157171418718 96.42741141474598
lradius 109.81693195065925
lwrist 28.501925406477472
lhand -29.27658135445192 3.0543828145759346
lfingers 7.125019999999998
lthumb -3.0193322559136684 32.69417653641719
rclavicle 4.28752700038245e-15 5.761646213958064e-17
rhumerus -41.10852102842722 15.753812508658541 -99.03297264106111
rradius 105.86010501140655
rwrist -9.63227540214628
rhand -20.38413492671023 36.41839182563271
rfingers 7.125019999999998
rthumb 6.0193035190877575 6.0951960992295255
152
root 0.896262799177272 17.836716603258925 42.583206360103425 1.7271480514970423 0.8226760972701055 0.20709379716281684
lfemur -17.950297820958394 1.7655513186486433 -22.163938177983784
ltibia 38.54558616925546
lfoot 0.9079702140742976 -9.641972704828005
ltoes -5.010658224238508
rfemur -17.729688430198262 4.078242901712624 26.412449847897744
rtibia 55.39436648018376
rfoot -5.806308628365698 -6.856474166544761
rtoes 0.13365945610281904
lowerback 12.56962308793158 0.8323127535026409 1.2810478026410865
upperback -0.7275201148705813 1.8276569603044954 0.9965363110643659
thorax -8.317231478049367 1.0188564082198086 0.4067063485512303
lowerneck -19.8557331504688 -3.9594260489066704 -1.877228137187627
upperneck 10.04939070433436 -5.116271452177325 3.1969622021393707
head 6.359669188662558 -2.296613676756242 0.8204512065790084
lclavicle 4.287488207731266e-15 5.75886165290891e-17
lhumerus -50.33756062522346 -11.858581847825176 96.27847755567478
lradius 109.83856388044893
lwrist 28.5585315526556
lhand -29.203998418470178 3.0853972344282283
lfingers 7.125019999999998
lthumb -2.9630774712306933 32.755658347522164
rclavicle 4.28752700038245e-15 5.761646213958064e-17
rhumerus -41.46234036597048 15.65119565967035 -99.18455677742998
rradius 105.81952545033866
rwrist -9.603479232009914
rhand -20.359628887978506 36.479237869661695
rfingers 7.125019999999998
rthumb 6.053650211086006 6.162525217640062
153
root 0.8200109812490981 17.72481526039553 38.43008499793108 1.4851895638163062 0.17377264001323856 -0.22456516612241018
lfemur -17.238000793039713 1.6776736348573615 -22.50057237422697
ltibia 39.346461151034134
lfoot 0.09475918705408448 -9.147428636722426
ltoes -5.167055547427578
rfemur -16.225332240064215 4.425799164332761 26.79341488351029
rtibia 55.392757533176
rfoot -5.346727532113584 -6.647214816959757
rtoes 0.5942570946780695
lowerback 12.546215802447211 0.7800426455389764 1.1383532639586198
upperback -0.6921786511005953 1.6277841916812332 0.9693553107535609
thorax -8.306685226460662 0.9567983401875781 0.5976674481019
lowerneck -19.740685705358786 -3.8228165968202603 -1.827881292056162
upperneck 10.12633566969986 -5.042182462583623 3.147845084693661
head 6.379189708772004 -2.282438435230874 0.822377790280644
lclavicle 4.287488207731266e-15 5.75886165290891e-17
lhumerus -49.49945212913396 -12.198682309504452 96.25442088446654
lradius 109.7378583618691
lwrist 28.646845652974225
lhand -29.084076121579233 3.1619389543787704
lfingers 7.125019999999998
lthumb -2.938194860823917 32.776805894773766
rclavicle 4.28752700038245e-15 5.761646213958064e-17
rhumerus -41.8215913632198 15.504157226688708 -99.30826360198436
rradius 105.7380509693473
rwrist -9.622905603840236
rhand -20.360671963826313 36.45539796675834
rfingers 7.125019999999998
rthumb 5.97008605890199 6.186786888367057
